# xmcd
#
# Track frame offsets:
#	150
#	12647
#	25992
#	41238
#	55409
#	74819
#	92384
#	106475
#	122775
#	137709
#	153813
#	168040
#	183845
#	199434
#	211406
#	222819
#	236442
#	253588
#	269800
#	290930
#	305432
#
# Disc length: 4304 seconds
#
# Revision: 1
# Processed by: cddbd v1.5.2PL0 Copyright (c) Steve Scherf et al.
# Submitted via: audiograbber 1.82.02
#
DISCID=4510ce15
DTITLE=Olika artister - Skön Svensk Country
DYEAR=2006
DGENRE=Country
TTITLE0=9 to 5 - Kikki Danielsson
TTITLE1=Rose garden - Johan Blohm
TTITLE2=You can´t love me too much - Jill Johnson
TTITLE3=Du kan alltid lita på pojkarna över 35 - Rankarna
TTITLE4=Änglahund - Hasse Andersson
TTITLE5=Blue Bajou - Carina Jarnek and Billy Swan
TTITLE6=Sylvie Marie - Inger Nordström
TTITLE7=Let your love flow - Christina Lindberg
TTITLE8=Varje litet ögonkast  - Jenny Öhlund
TTITLE9=Help me make it trough the night - Mats Rådberg and Elisabeth Andreasson
TTITLE10=Like that no more - Eva Eastwood
TTITLE11=Secrets in my life - Jill Johnson
TTITLE12=Burnin´for you - Dixie n´Dave
TTITLE13=Stand by your man - Kikki Danielsson
TTITLE14=Kvinnor är smartast - Sigge Hill
TTITLE15=Mama take me home - Rednex
TTITLE16=Louise ( Lucille ) - Alf Robertson
TTITLE17=Don´t darken my doorstep - Ann-Louise Hansson
TTITLE18=Anna and mig - Martin Nilsson
TTITLE19=Early morning rain - Mats Rådberg and Rankarna
TTITLE20=Together again - Elisabeth Andreasson
EXTD=
EXTT0=
EXTT1=
EXTT2=
EXTT3=
EXTT4=
EXTT5=
EXTT6=
EXTT7=
EXTT8=
EXTT9=
EXTT10=
EXTT11=
EXTT12=
EXTT13=
EXTT14=
EXTT15=
EXTT16=
EXTT17=
EXTT18=
EXTT19=
EXTT20=
PLAYORDER=
